<mxfile host="65bd71144e">
    <diagram id="krcAVNINpBlmixEPBgvQ" name="Logical-flow">
        <mxGraphModel dx="757" dy="353" grid="1" gridSize="10" guides="1" tooltips="1" connect="1" arrows="1" fold="1" page="1" pageScale="1" pageWidth="1169" pageHeight="827" math="0" shadow="0">
            <root>
                <mxCell id="0"/>
                <mxCell id="1" parent="0"/>
                <mxCell id="UeT1FfdzGyLcaej1l1ET-3" style="edgeStyle=orthogonalEdgeStyle;rounded=0;orthogonalLoop=1;jettySize=auto;html=1;" parent="1" source="UeT1FfdzGyLcaej1l1ET-1" target="UeT1FfdzGyLcaej1l1ET-2" edge="1">
                    <mxGeometry relative="1" as="geometry"/>
                </mxCell>
                <mxCell id="UeT1FfdzGyLcaej1l1ET-1" value="Get URL from user" style="ellipse;whiteSpace=wrap;html=1;" parent="1" vertex="1">
                    <mxGeometry x="120" y="40" width="120" height="80" as="geometry"/>
                </mxCell>
                <mxCell id="UeT1FfdzGyLcaej1l1ET-5" style="edgeStyle=orthogonalEdgeStyle;rounded=0;orthogonalLoop=1;jettySize=auto;html=1;" parent="1" source="UeT1FfdzGyLcaej1l1ET-2" target="UeT1FfdzGyLcaej1l1ET-4" edge="1">
                    <mxGeometry relative="1" as="geometry">
                        <Array as="points">
                            <mxPoint x="330" y="240"/>
                            <mxPoint x="330" y="240"/>
                        </Array>
                    </mxGeometry>
                </mxCell>
                <mxCell id="3" style="edgeStyle=orthogonalEdgeStyle;rounded=0;orthogonalLoop=1;jettySize=auto;html=1;entryX=0.5;entryY=0;entryDx=0;entryDy=0;" edge="1" parent="1" source="UeT1FfdzGyLcaej1l1ET-2" target="2">
                    <mxGeometry relative="1" as="geometry"/>
                </mxCell>
                <mxCell id="UeT1FfdzGyLcaej1l1ET-2" value="Get time to detect current day of month" style="ellipse;whiteSpace=wrap;html=1;" parent="1" vertex="1">
                    <mxGeometry x="120" y="200" width="120" height="80" as="geometry"/>
                </mxCell>
                <mxCell id="VtEJML3tT3T2pC3QXiPh-1" style="edgeStyle=orthogonalEdgeStyle;rounded=0;orthogonalLoop=1;jettySize=auto;html=1;entryX=0;entryY=0.5;entryDx=0;entryDy=0;" parent="1" source="UeT1FfdzGyLcaej1l1ET-4" target="UeT1FfdzGyLcaej1l1ET-12" edge="1">
                    <mxGeometry relative="1" as="geometry"/>
                </mxCell>
                <mxCell id="VtEJML3tT3T2pC3QXiPh-2" style="edgeStyle=orthogonalEdgeStyle;rounded=0;orthogonalLoop=1;jettySize=auto;html=1;" parent="1" source="UeT1FfdzGyLcaej1l1ET-4" target="UeT1FfdzGyLcaej1l1ET-6" edge="1">
                    <mxGeometry relative="1" as="geometry"/>
                </mxCell>
                <mxCell id="UeT1FfdzGyLcaej1l1ET-4" value="Send request to URL" style="ellipse;whiteSpace=wrap;html=1;" parent="1" vertex="1">
                    <mxGeometry x="340" y="200" width="120" height="80" as="geometry"/>
                </mxCell>
                <mxCell id="VtEJML3tT3T2pC3QXiPh-3" style="edgeStyle=orthogonalEdgeStyle;rounded=0;orthogonalLoop=1;jettySize=auto;html=1;entryX=0.5;entryY=0;entryDx=0;entryDy=0;" parent="1" source="UeT1FfdzGyLcaej1l1ET-6" target="UeT1FfdzGyLcaej1l1ET-8" edge="1">
                    <mxGeometry relative="1" as="geometry">
                        <Array as="points">
                            <mxPoint x="630" y="400"/>
                        </Array>
                    </mxGeometry>
                </mxCell>
                <mxCell id="UeT1FfdzGyLcaej1l1ET-6" value="Find end of the month index" style="ellipse;whiteSpace=wrap;html=1;" parent="1" vertex="1">
                    <mxGeometry x="340" y="360" width="120" height="80" as="geometry"/>
                </mxCell>
                <mxCell id="VtEJML3tT3T2pC3QXiPh-6" style="edgeStyle=orthogonalEdgeStyle;rounded=0;orthogonalLoop=1;jettySize=auto;html=1;entryX=0;entryY=0.5;entryDx=0;entryDy=0;" parent="1" source="UeT1FfdzGyLcaej1l1ET-8" target="UeT1FfdzGyLcaej1l1ET-10" edge="1">
                    <mxGeometry relative="1" as="geometry"/>
                </mxCell>
                <mxCell id="UeT1FfdzGyLcaej1l1ET-8" value="Diff the EoM from SoM" style="ellipse;whiteSpace=wrap;html=1;" parent="1" vertex="1">
                    <mxGeometry x="570" y="480" width="120" height="80" as="geometry"/>
                </mxCell>
                <mxCell id="VtEJML3tT3T2pC3QXiPh-8" style="edgeStyle=orthogonalEdgeStyle;rounded=0;orthogonalLoop=1;jettySize=auto;html=1;entryX=0.5;entryY=0;entryDx=0;entryDy=0;" parent="1" source="UeT1FfdzGyLcaej1l1ET-10" target="VtEJML3tT3T2pC3QXiPh-7" edge="1">
                    <mxGeometry relative="1" as="geometry"/>
                </mxCell>
                <mxCell id="UeT1FfdzGyLcaej1l1ET-10" value="Make reqs as long as it is the same amount of the diff and wrap them in promise" style="ellipse;whiteSpace=wrap;html=1;" parent="1" vertex="1">
                    <mxGeometry x="760" y="310" width="190" height="120" as="geometry"/>
                </mxCell>
                <mxCell id="VtEJML3tT3T2pC3QXiPh-5" style="edgeStyle=orthogonalEdgeStyle;rounded=0;orthogonalLoop=1;jettySize=auto;html=1;entryX=0.5;entryY=0;entryDx=0;entryDy=0;" parent="1" source="UeT1FfdzGyLcaej1l1ET-12" target="UeT1FfdzGyLcaej1l1ET-10" edge="1">
                    <mxGeometry relative="1" as="geometry"/>
                </mxCell>
                <mxCell id="UeT1FfdzGyLcaej1l1ET-12" value="Fix a list of links for daily forecast" style="ellipse;whiteSpace=wrap;html=1;" parent="1" vertex="1">
                    <mxGeometry x="570" y="200" width="120" height="80" as="geometry"/>
                </mxCell>
                <mxCell id="VtEJML3tT3T2pC3QXiPh-10" style="edgeStyle=orthogonalEdgeStyle;rounded=0;orthogonalLoop=1;jettySize=auto;html=1;entryX=1.005;entryY=0.567;entryDx=0;entryDy=0;entryPerimeter=0;exitX=0.5;exitY=1;exitDx=0;exitDy=0;" parent="1" source="VtEJML3tT3T2pC3QXiPh-7" target="VtEJML3tT3T2pC3QXiPh-9" edge="1">
                    <mxGeometry relative="1" as="geometry">
                        <Array as="points">
                            <mxPoint x="855" y="718"/>
                        </Array>
                    </mxGeometry>
                </mxCell>
                <mxCell id="VtEJML3tT3T2pC3QXiPh-7" value="Save the values in an object and stringify" style="ellipse;whiteSpace=wrap;html=1;" parent="1" vertex="1">
                    <mxGeometry x="760" y="520" width="190" height="120" as="geometry"/>
                </mxCell>
                <mxCell id="VtEJML3tT3T2pC3QXiPh-9" value="Save the JSON in a file" style="ellipse;whiteSpace=wrap;html=1;" parent="1" vertex="1">
                    <mxGeometry x="550" y="650" width="190" height="120" as="geometry"/>
                </mxCell>
                <mxCell id="4" style="edgeStyle=orthogonalEdgeStyle;rounded=0;orthogonalLoop=1;jettySize=auto;html=1;entryX=0;entryY=0.5;entryDx=0;entryDy=0;" edge="1" parent="1" source="2" target="UeT1FfdzGyLcaej1l1ET-8">
                    <mxGeometry relative="1" as="geometry">
                        <Array as="points">
                            <mxPoint x="180" y="520"/>
                        </Array>
                    </mxGeometry>
                </mxCell>
                <mxCell id="2" value="Find start of month using whether it is current month or not" style="ellipse;whiteSpace=wrap;html=1;" vertex="1" parent="1">
                    <mxGeometry x="120" y="360" width="120" height="80" as="geometry"/>
                </mxCell>
            </root>
        </mxGraphModel>
    </diagram>
</mxfile>